<mxfile host="app.diagrams.net" modified="2022-10-31T09:02:19.349Z" agent="5.0 (Windows NT 10.0; Win64; x64) AppleWebKit/537.36 (KHTML, like Gecko) Chrome/107.0.0.0 Safari/537.36 Edg/107.0.1418.26" etag="a3LWis2EIZHkdrAg6oqT" version="20.5.1" type="github">
  <diagram id="C5RBs43oDa-KdzZeNtuy" name="Page-1">
    <mxGraphModel dx="1185" dy="635" grid="1" gridSize="10" guides="1" tooltips="1" connect="1" arrows="1" fold="1" page="1" pageScale="1" pageWidth="827" pageHeight="1169" math="0" shadow="0">
      <root>
        <mxCell id="WIyWlLk6GJQsqaUBKTNV-0" />
        <mxCell id="WIyWlLk6GJQsqaUBKTNV-1" parent="WIyWlLk6GJQsqaUBKTNV-0" />
        <mxCell id="uxCPb5951isJVDWly0Wi-1" style="edgeStyle=orthogonalEdgeStyle;rounded=0;orthogonalLoop=1;jettySize=auto;html=1;entryX=0.5;entryY=0;entryDx=0;entryDy=0;" edge="1" parent="WIyWlLk6GJQsqaUBKTNV-1" source="WIyWlLk6GJQsqaUBKTNV-3" target="uxCPb5951isJVDWly0Wi-0">
          <mxGeometry relative="1" as="geometry" />
        </mxCell>
        <mxCell id="WIyWlLk6GJQsqaUBKTNV-3" value="登录页面" style="rounded=1;whiteSpace=wrap;html=1;fontSize=12;glass=0;strokeWidth=1;shadow=0;" parent="WIyWlLk6GJQsqaUBKTNV-1" vertex="1">
          <mxGeometry x="229.97" y="310" width="120" height="40" as="geometry" />
        </mxCell>
        <mxCell id="uxCPb5951isJVDWly0Wi-4" style="edgeStyle=orthogonalEdgeStyle;rounded=0;orthogonalLoop=1;jettySize=auto;html=1;entryX=0.5;entryY=0;entryDx=0;entryDy=0;" edge="1" parent="WIyWlLk6GJQsqaUBKTNV-1" source="uxCPb5951isJVDWly0Wi-0" target="uxCPb5951isJVDWly0Wi-3">
          <mxGeometry relative="1" as="geometry" />
        </mxCell>
        <mxCell id="uxCPb5951isJVDWly0Wi-0" value="用户输入账号、密码验证码" style="rounded=0;whiteSpace=wrap;html=1;" vertex="1" parent="WIyWlLk6GJQsqaUBKTNV-1">
          <mxGeometry x="229.97" y="380" width="120" height="40" as="geometry" />
        </mxCell>
        <mxCell id="uxCPb5951isJVDWly0Wi-5" style="edgeStyle=orthogonalEdgeStyle;rounded=0;orthogonalLoop=1;jettySize=auto;html=1;fontSize=11;entryX=0;entryY=0.5;entryDx=0;entryDy=0;" edge="1" parent="WIyWlLk6GJQsqaUBKTNV-1">
          <mxGeometry relative="1" as="geometry">
            <mxPoint x="229.97" y="330" as="targetPoint" />
            <mxPoint x="210.0271428571427" y="490.02857142857135" as="sourcePoint" />
            <Array as="points">
              <mxPoint x="169.97" y="490" />
              <mxPoint x="169.97" y="330" />
            </Array>
          </mxGeometry>
        </mxCell>
        <mxCell id="uxCPb5951isJVDWly0Wi-6" value="错误&lt;br&gt;提示错误信息" style="edgeLabel;html=1;align=center;verticalAlign=middle;resizable=0;points=[];fontSize=11;" vertex="1" connectable="0" parent="uxCPb5951isJVDWly0Wi-5">
          <mxGeometry x="-0.0316" y="-1" relative="1" as="geometry">
            <mxPoint as="offset" />
          </mxGeometry>
        </mxCell>
        <mxCell id="uxCPb5951isJVDWly0Wi-8" style="edgeStyle=orthogonalEdgeStyle;rounded=0;orthogonalLoop=1;jettySize=auto;html=1;entryX=0;entryY=0.5;entryDx=0;entryDy=0;fontSize=11;" edge="1" parent="WIyWlLk6GJQsqaUBKTNV-1" source="uxCPb5951isJVDWly0Wi-3" target="uxCPb5951isJVDWly0Wi-7">
          <mxGeometry relative="1" as="geometry" />
        </mxCell>
        <mxCell id="uxCPb5951isJVDWly0Wi-15" value="正确" style="edgeLabel;html=1;align=center;verticalAlign=middle;resizable=0;points=[];fontSize=11;" vertex="1" connectable="0" parent="uxCPb5951isJVDWly0Wi-8">
          <mxGeometry x="-0.2776" relative="1" as="geometry">
            <mxPoint x="5" as="offset" />
          </mxGeometry>
        </mxCell>
        <mxCell id="uxCPb5951isJVDWly0Wi-3" value="&lt;font style=&quot;font-size: 11px;&quot;&gt;检查用户&lt;br&gt;输入的账号、密码&lt;br&gt;是否正确&lt;/font&gt;" style="rhombus;whiteSpace=wrap;html=1;" vertex="1" parent="WIyWlLk6GJQsqaUBKTNV-1">
          <mxGeometry x="209.97" y="450" width="160" height="80" as="geometry" />
        </mxCell>
        <mxCell id="uxCPb5951isJVDWly0Wi-9" style="edgeStyle=orthogonalEdgeStyle;rounded=0;orthogonalLoop=1;jettySize=auto;html=1;fontSize=11;entryX=1;entryY=0.5;entryDx=0;entryDy=0;startArrow=none;" edge="1" parent="WIyWlLk6GJQsqaUBKTNV-1" target="WIyWlLk6GJQsqaUBKTNV-3">
          <mxGeometry relative="1" as="geometry">
            <mxPoint x="589.97" y="330" as="targetPoint" />
            <mxPoint x="419.97" y="330" as="sourcePoint" />
            <Array as="points" />
          </mxGeometry>
        </mxCell>
        <mxCell id="uxCPb5951isJVDWly0Wi-19" style="edgeStyle=orthogonalEdgeStyle;rounded=0;orthogonalLoop=1;jettySize=auto;html=1;entryX=0.5;entryY=0;entryDx=0;entryDy=0;fontSize=11;" edge="1" parent="WIyWlLk6GJQsqaUBKTNV-1" source="uxCPb5951isJVDWly0Wi-7" target="uxCPb5951isJVDWly0Wi-17">
          <mxGeometry relative="1" as="geometry">
            <Array as="points">
              <mxPoint x="519.97" y="555" />
              <mxPoint x="429.97" y="555" />
            </Array>
          </mxGeometry>
        </mxCell>
        <mxCell id="uxCPb5951isJVDWly0Wi-24" style="edgeStyle=orthogonalEdgeStyle;rounded=0;orthogonalLoop=1;jettySize=auto;html=1;fontSize=11;entryX=0.5;entryY=0;entryDx=0;entryDy=0;" edge="1" parent="WIyWlLk6GJQsqaUBKTNV-1" source="uxCPb5951isJVDWly0Wi-7" target="uxCPb5951isJVDWly0Wi-18">
          <mxGeometry relative="1" as="geometry">
            <mxPoint x="519.97" y="560" as="targetPoint" />
          </mxGeometry>
        </mxCell>
        <mxCell id="uxCPb5951isJVDWly0Wi-7" value="&lt;span style=&quot;font-size: 11px;&quot;&gt;检查用户状态&lt;br&gt;&lt;/span&gt;是否被封禁" style="rhombus;whiteSpace=wrap;html=1;" vertex="1" parent="WIyWlLk6GJQsqaUBKTNV-1">
          <mxGeometry x="439.97" y="450" width="160" height="80" as="geometry" />
        </mxCell>
        <mxCell id="uxCPb5951isJVDWly0Wi-12" value="" style="edgeStyle=orthogonalEdgeStyle;rounded=0;orthogonalLoop=1;jettySize=auto;html=1;fontSize=11;entryX=1;entryY=0.5;entryDx=0;entryDy=0;endArrow=none;" edge="1" parent="WIyWlLk6GJQsqaUBKTNV-1" source="uxCPb5951isJVDWly0Wi-7">
          <mxGeometry relative="1" as="geometry">
            <mxPoint x="539.97" y="330" as="targetPoint" />
            <mxPoint x="599.9128571428573" y="490.02857142857135" as="sourcePoint" />
            <Array as="points">
              <mxPoint x="609.97" y="490" />
              <mxPoint x="609.97" y="330" />
            </Array>
          </mxGeometry>
        </mxCell>
        <mxCell id="uxCPb5951isJVDWly0Wi-13" value="封禁" style="edgeLabel;html=1;align=center;verticalAlign=middle;resizable=0;points=[];fontSize=11;" vertex="1" connectable="0" parent="uxCPb5951isJVDWly0Wi-12">
          <mxGeometry x="-0.608" y="-1" relative="1" as="geometry">
            <mxPoint y="-53" as="offset" />
          </mxGeometry>
        </mxCell>
        <mxCell id="uxCPb5951isJVDWly0Wi-14" value="提示用户被封禁" style="rounded=0;whiteSpace=wrap;html=1;" vertex="1" parent="WIyWlLk6GJQsqaUBKTNV-1">
          <mxGeometry x="419.97" y="310" width="120" height="40" as="geometry" />
        </mxCell>
        <mxCell id="uxCPb5951isJVDWly0Wi-17" value="后台管理系统" style="rounded=0;whiteSpace=wrap;html=1;" vertex="1" parent="WIyWlLk6GJQsqaUBKTNV-1">
          <mxGeometry x="369.97" y="580" width="120" height="40" as="geometry" />
        </mxCell>
        <mxCell id="uxCPb5951isJVDWly0Wi-18" value="前台门户系统" style="rounded=0;whiteSpace=wrap;html=1;" vertex="1" parent="WIyWlLk6GJQsqaUBKTNV-1">
          <mxGeometry x="559.97" y="580" width="120" height="40" as="geometry" />
        </mxCell>
      </root>
    </mxGraphModel>
  </diagram>
</mxfile>
